<svg width="17" height="15" viewBox="0 0 17 15" fill="none" xmlns="http://www.w3.org/2000/svg">
<path d="M8.43767 1.20015C7.01612 1.20015 5.62649 1.60483 4.44451 2.363C3.26253 3.12117 2.34129 4.19879 1.79729 5.45959C1.25328 6.72039 1.11095 8.10773 1.38828 9.44618C1.66561 10.7846 2.35015 12.0141 3.35534 12.9791C4.36053 13.944 5.64122 14.6012 7.03546 14.8674C8.4297 15.1337 9.87487 14.997 11.1882 14.4748C12.5016 13.9525 13.6241 13.0682 14.4139 11.9335C15.2036 10.7988 15.6252 9.46475 15.6252 8.10008C15.6231 6.27071 14.8652 4.51684 13.5177 3.22329C12.1702 1.92973 10.3433 1.20214 8.43767 1.20015ZM8.43767 14.4C7.13973 14.4 5.87094 14.0305 4.79174 13.3383C3.71255 12.646 2.87141 11.6621 2.37471 10.511C1.87801 9.35979 1.74805 8.09309 2.00127 6.87102C2.25449 5.64895 2.8795 4.52641 3.79729 3.64535C4.71507 2.76429 5.88439 2.16428 7.15739 1.9212C8.43039 1.67811 9.74989 1.80287 10.949 2.2797C12.1482 2.75653 13.1731 3.564 13.8942 4.60002C14.6153 5.63604 15.0002 6.85407 15.0002 8.10008C14.9983 9.77037 14.3063 11.3717 13.076 12.5528C11.8457 13.7339 10.1776 14.3982 8.43767 14.4ZM3.03377 0.512411L0.533767 2.91238C0.47513 2.96868 0.3956 3.0003 0.312674 3.0003C0.229748 3.0003 0.150218 2.96868 0.09158 2.91238C0.0329423 2.85609 6.17849e-10 2.77974 0 2.70014C-6.17849e-10 2.62053 0.0329423 2.54418 0.09158 2.48789L2.59158 0.0879158C2.65022 0.0316242 2.72975 -5.93128e-10 2.81267 0C2.8956 5.93128e-10 2.97513 0.0316242 3.03377 0.0879158C3.09241 0.144207 3.12535 0.220555 3.12535 0.300163C3.12535 0.379772 3.09241 0.456119 3.03377 0.512411ZM16.7838 2.91238C16.7547 2.94028 16.7203 2.9624 16.6823 2.9775C16.6444 2.9926 16.6037 3.00037 16.5627 3.00037C16.5216 3.00037 16.4809 2.9926 16.443 2.9775C16.4051 2.9624 16.3706 2.94028 16.3416 2.91238L13.8416 0.512411C13.7829 0.456119 13.75 0.379772 13.75 0.300163C13.75 0.220555 13.7829 0.144207 13.8416 0.0879158C13.9002 0.0316242 13.9797 0 14.0627 0C14.1456 0 14.2251 0.0316242 14.2838 0.0879158L16.7838 2.48789C16.8128 2.51575 16.8359 2.54884 16.8516 2.58526C16.8673 2.62167 16.8754 2.66071 16.8754 2.70014C16.8754 2.73956 16.8673 2.7786 16.8516 2.81502C16.8359 2.85144 16.8128 2.88452 16.7838 2.91238ZM13.1252 8.10008C13.1252 8.17964 13.0923 8.25595 13.0336 8.31221C12.975 8.36847 12.8956 8.40007 12.8127 8.40007H8.43767C8.35479 8.40007 8.27531 8.36847 8.2167 8.31221C8.1581 8.25595 8.12517 8.17964 8.12517 8.10008V3.90012C8.12517 3.82056 8.1581 3.74425 8.2167 3.68799C8.27531 3.63173 8.35479 3.60013 8.43767 3.60013C8.52055 3.60013 8.60004 3.63173 8.65865 3.68799C8.71725 3.74425 8.75017 3.82056 8.75017 3.90012V7.80008H12.8127C12.8956 7.80008 12.975 7.83169 13.0336 7.88795C13.0923 7.94421 13.1252 8.02051 13.1252 8.10008Z" fill="black"/>
</svg>
