<svg width="14" height="14" viewBox="0 0 14 14" fill="none" xmlns="http://www.w3.org/2000/svg">
<path fill-rule="evenodd" clip-rule="evenodd" d="M0.853553 0.146447C0.658291 -0.0488155 0.341709 -0.0488155 0.146447 0.146447C-0.0488155 0.341709 -0.0488155 0.658291 0.146447 0.853553L6.15686 6.86396L0.146447 12.8744C-0.0488155 13.0696 -0.0488155 13.3862 0.146447 13.5815C0.341709 13.7767 0.658291 13.7767 0.853553 13.5815L6.86396 7.57107L12.8744 13.5815C13.0696 13.7767 13.3862 13.7767 13.5815 13.5815C13.7767 13.3862 13.7767 13.0696 13.5815 12.8744L7.57107 6.86396L13.5815 0.85356C13.7767 0.658298 13.7767 0.341715 13.5815 0.146453C13.3862 -0.0488092 13.0696 -0.048809 12.8744 0.146453L6.86396 6.15686L0.853553 0.146447Z" fill="black"/>
</svg>
