<svg width="23" height="18" viewBox="0 0 23 18" fill="none" xmlns="http://www.w3.org/2000/svg">
<path fill-rule="evenodd" clip-rule="evenodd" d="M17.1967 3.79988C17.0109 3.74459 16.8219 3.70197 16.6312 3.67215C16.8712 3.34413 17.0379 2.95916 17.08 2.51229L18.0756 2.60606C18.0271 3.12091 17.8651 3.57051 17.6384 3.95783C17.4944 3.89735 17.3469 3.8446 17.1967 3.79988Z" fill="black"/>
<path fill-rule="evenodd" clip-rule="evenodd" d="M13.0751 6.74136C13.0863 6.71202 13.0979 6.68282 13.1099 6.65377C13.2771 6.25013 13.5222 5.88337 13.8311 5.57444C14.1401 5.26551 14.5068 5.02045 14.9105 4.85325C15.3141 4.68606 15.7467 4.60001 16.1836 4.60001C16.6205 4.60001 17.0531 4.68606 17.4568 4.85325C17.8604 5.02045 18.2272 5.26551 18.5361 5.57444C18.845 5.88337 19.0901 6.25013 19.2573 6.65377C19.2693 6.68282 19.2809 6.71202 19.2921 6.74136H20.3449C20.2995 6.58191 20.2449 6.42488 20.1812 6.27109C19.9637 5.74612 19.645 5.26912 19.2432 4.86733C18.8414 4.46554 18.3644 4.14682 17.8395 3.92937C17.3145 3.71193 16.7518 3.60001 16.1836 3.60001C15.6154 3.60001 15.0527 3.71193 14.5278 3.92937C14.0028 4.14682 13.5258 4.46554 13.124 4.86733C12.7222 5.26912 12.4035 5.74612 12.1861 6.27109C12.1224 6.42488 12.0677 6.58191 12.0223 6.74136H13.0751Z" fill="black"/>
<path fill-rule="evenodd" clip-rule="evenodd" d="M4.08478 3.9375C4.08478 3.64251 4.17739 3.1889 4.44055 2.8234C4.68535 2.4834 5.09774 2.1875 5.83478 2.1875C6.57182 2.1875 6.98421 2.4834 7.22901 2.8234C7.49217 3.1889 7.58478 3.64251 7.58478 3.9375C7.58478 4.56374 7.73791 5.50309 8.21853 6.30412C8.31148 6.45904 8.41694 6.60884 8.5357 6.75H10.3357C9.74081 6.60834 9.34618 6.23989 9.07602 5.78963C8.7129 5.18441 8.58478 4.43626 8.58478 3.9375C8.58478 3.48249 8.45239 2.8111 8.04054 2.2391C7.61035 1.6416 6.89774 1.1875 5.83478 1.1875C4.77182 1.1875 4.05921 1.6416 3.62901 2.2391C3.21717 2.8111 3.08478 3.48249 3.08478 3.9375V6.75H4.08478V3.9375Z" fill="black"/>
<line x1="5.77228" x2="5.77228" y2="1.6875" stroke="black"/>
<path fill-rule="evenodd" clip-rule="evenodd" d="M0.209778 6.75C0.209778 7.0844 0.224686 7.41805 0.25431 7.75C0.355564 8.8846 0.628736 9.99922 1.06613 11.0552C1.6315 12.4201 2.46017 13.6603 3.50483 14.705C4.54949 15.7496 5.78968 16.5783 7.15459 17.1436C8.5195 17.709 9.98241 18 11.4598 18C12.9371 18 14.4001 17.709 15.765 17.1436C17.1299 16.5783 18.3701 15.7496 19.4147 14.705C20.4594 13.6603 21.2881 12.4201 21.8534 11.0552C22.2908 9.99922 22.564 8.8846 22.6652 7.75C22.6949 7.41805 22.7098 7.0844 22.7098 6.75H21.7098H11.4598H1.20978H0.209778ZM21.6609 7.75C21.5626 8.75306 21.3166 9.73799 20.9295 10.6725C20.4144 11.9161 19.6594 13.046 18.7076 13.9978C17.7558 14.9496 16.6259 15.7047 15.3823 16.2198C14.1387 16.7349 12.8058 17 11.4598 17C10.1137 17 8.78086 16.7349 7.53727 16.2198C6.29368 15.7047 5.16373 14.9496 4.21193 13.9978C3.26013 13.046 2.50512 11.9161 1.99001 10.6725C1.60292 9.73799 1.357 8.75306 1.25867 7.75L11.4598 7.75H21.6609Z" fill="black"/>
</svg>
