<svg width="27" height="27" viewBox="0 0 27 27" fill="none" xmlns="http://www.w3.org/2000/svg">
<path d="M25.9975 8.59639V6.40509C25.9975 3.42013 23.5774 1 20.591 1H18.8458" stroke="black" stroke-linecap="round" stroke-linejoin="round"/>
<path d="M1 8.59639V6.40509C1 3.42013 3.42013 1 6.40654 1H8.19665" stroke="black" stroke-linecap="round" stroke-linejoin="round"/>
<path d="M25.9975 14.6932V20.5936C25.9975 23.58 23.5774 26.0001 20.591 26.0001H18.8458" stroke="black" stroke-linecap="round" stroke-linejoin="round"/>
<path d="M1 14.6932V20.5936C1 23.58 3.42013 26.0001 6.40654 26.0001H8.19665" stroke="black" stroke-linecap="round" stroke-linejoin="round"/>
<path fill-rule="evenodd" clip-rule="evenodd" d="M17.3245 10.5337C17.4784 10.5795 17.6279 10.638 17.7713 10.7083C17.929 10.4349 18.0421 10.1172 18.0764 9.75314L17.0808 9.65937C17.0528 9.95635 16.9317 10.2101 16.7547 10.425C16.9474 10.442 17.1383 10.4783 17.3245 10.5337Z" fill="black"/>
<path fill-rule="evenodd" clip-rule="evenodd" d="M15.052 12.2846C15.1272 12.1644 15.216 12.0528 15.3168 11.952C15.4918 11.777 15.6995 11.6382 15.9282 11.5435C16.1568 11.4487 16.4019 11.4 16.6494 11.4C16.8969 11.4 17.1419 11.4487 17.3706 11.5435C17.5993 11.6382 17.807 11.777 17.982 11.952C18.0828 12.0528 18.1716 12.1644 18.2468 12.2846L16.6494 12.2846H15.052ZM19.4238 12.4948C19.4036 12.424 19.3807 12.3539 19.3551 12.2846C19.3422 12.2497 19.3287 12.2151 19.3144 12.1807C19.1695 11.8307 18.957 11.5127 18.6891 11.2449C18.4213 10.977 18.1033 10.7645 17.7533 10.6196C17.4033 10.4746 17.0282 10.4 16.6494 10.4C16.2706 10.4 15.8955 10.4746 15.5455 10.6196C15.1955 10.7645 14.8775 10.977 14.6097 11.2449C14.3418 11.5127 14.1293 11.8307 13.9844 12.1807C13.9701 12.2151 13.9565 12.2497 13.9437 12.2846C13.9181 12.3539 13.8952 12.424 13.875 12.4948H19.4238Z" fill="black"/>
<path fill-rule="evenodd" clip-rule="evenodd" d="M8.74997 10.6251C8.74997 10.4551 8.80508 10.189 8.95574 9.97974C9.08804 9.79599 9.31293 9.62509 9.74997 9.62509C10.187 9.62509 10.4119 9.79599 10.5442 9.97974C10.6949 10.189 10.75 10.4551 10.75 10.6251C10.75 11.0638 10.8562 11.7219 11.1962 12.2886C11.2395 12.3608 11.2868 12.4315 11.338 12.5001H13.125V12.3751C12.5795 12.3751 12.2606 12.1188 12.0537 11.7741C11.8312 11.4033 11.75 10.9364 11.75 10.6251C11.75 10.2951 11.6551 9.81119 11.3557 9.39544C11.038 8.95419 10.5129 8.62509 9.74997 8.62509C8.98701 8.62509 8.4619 8.95419 8.1442 9.39544C7.84486 9.81119 7.74997 10.2951 7.74997 10.6251V12.5001H8.74997V10.6251Z" fill="black"/>
<line x1="9.875" y1="8" x2="9.875" y2="9.125" stroke="black"/>
<path fill-rule="evenodd" clip-rule="evenodd" d="M6 12.5C6 12.8352 6.02247 13.1692 6.06697 13.5C6.15322 14.1411 6.32226 14.7699 6.5709 15.3701C6.94781 16.2801 7.50026 17.1069 8.1967 17.8033C8.89314 18.4997 9.71993 19.0522 10.6299 19.4291C11.5398 19.806 12.5151 20 13.5 20C14.4849 20 15.4602 19.806 16.3701 19.4291C17.2801 19.0522 18.1069 18.4997 18.8033 17.8033C19.4997 17.1069 20.0522 16.2801 20.4291 15.3701C20.6777 14.7699 20.8468 14.1411 20.933 13.5C20.9775 13.1692 21 12.8352 21 12.5H20H13.5H7H6ZM19.9226 13.5C19.8433 14.0095 19.7034 14.5089 19.5052 14.9874C19.1786 15.7761 18.6998 16.4926 18.0962 17.0962C17.4926 17.6998 16.7761 18.1786 15.9874 18.5052C15.1988 18.8319 14.3536 19 13.5 19C12.6464 19 11.8012 18.8319 11.0126 18.5052C10.2239 18.1786 9.50739 17.6998 8.90381 17.0962C8.30022 16.4926 7.82144 15.7761 7.49478 14.9874C7.29656 14.5089 7.15671 14.0095 7.07738 13.5L13.5 13.5H19.9226Z" fill="black"/>
</svg>
