<svg width="15" height="15" viewBox="0 0 15 15" fill="none" xmlns="http://www.w3.org/2000/svg">
<path d="M7.49974 4.22094C6.85126 4.22094 6.21733 4.41324 5.67814 4.77352C5.13894 5.1338 4.71869 5.64588 4.47052 6.245C4.22236 6.84412 4.15743 7.50338 4.28394 8.1394C4.41045 8.77543 4.72273 9.35966 5.18128 9.8182C5.63983 10.2768 6.22405 10.589 6.86008 10.7155C7.4961 10.8421 8.15536 10.7771 8.75449 10.529C9.35361 10.2808 9.86569 9.86054 10.226 9.32135C10.5862 8.78215 10.7785 8.14823 10.7785 7.49974C10.7776 6.63045 10.4318 5.79705 9.81712 5.18237C9.20243 4.56769 8.36903 4.22193 7.49974 4.22094ZM7.49974 10.1824C6.96916 10.1824 6.4505 10.0251 6.00934 9.73029C5.56818 9.43551 5.22433 9.01654 5.02129 8.52635C4.81825 8.03616 4.76512 7.49677 4.86863 6.97638C4.97214 6.456 5.22764 5.97799 5.60282 5.60282C5.97799 5.22764 6.456 4.97214 6.97638 4.86863C7.49677 4.76512 8.03616 4.81825 8.52635 5.02129C9.01654 5.22433 9.43551 5.56818 9.73029 6.00934C10.0251 6.4505 10.1824 6.96916 10.1824 7.49974C10.1824 8.21123 9.89976 8.89357 9.39667 9.39667C8.89357 9.89976 8.21123 10.1824 7.49974 10.1824ZM13.7541 7.7613C13.7605 7.58693 13.7605 7.41305 13.7541 7.23967L14.9337 5.76496C14.963 5.72856 14.9833 5.68579 14.993 5.64009C15.0027 5.5944 15.0015 5.54707 14.9896 5.50191C14.813 4.84184 14.5497 4.20812 14.2064 3.61734C14.1834 3.57673 14.1512 3.54209 14.1123 3.51621C14.0735 3.49032 14.0292 3.47391 13.9828 3.46831L12.1057 3.25965C11.988 3.13223 11.8643 3.00853 11.7368 2.89079L11.5289 1.01666C11.5233 0.970327 11.5069 0.925963 11.481 0.887134C11.4552 0.848305 11.4205 0.816096 11.3799 0.793101C10.7899 0.450606 10.1572 0.187519 9.49832 0.0106599C9.45322 -0.00138967 9.40592 -0.00267721 9.36023 0.00690089C9.31454 0.016479 9.27174 0.0366549 9.23527 0.0658033L7.7613 1.24543C7.58693 1.23847 7.41305 1.23847 7.23967 1.24543L5.76347 0.0658033C5.72707 0.0365273 5.6843 0.0162162 5.6386 0.00650818C5.59291 -0.00319985 5.54558 -0.00203302 5.50042 0.00991466C4.84086 0.186587 4.20765 0.449944 3.61734 0.793101C3.57673 0.816096 3.54209 0.848305 3.51621 0.887134C3.49032 0.925963 3.47391 0.970327 3.46831 1.01666L3.25965 2.89377C3.13223 3.01151 3.00853 3.13521 2.89079 3.26264L1.01666 3.47054C0.970327 3.47615 0.925963 3.49256 0.887134 3.51844C0.848305 3.54433 0.816096 3.57897 0.793101 3.61958C0.450606 4.2096 0.187519 4.84226 0.0106599 5.50116C-0.00138967 5.54626 -0.00267721 5.59357 0.00690089 5.63926C0.016479 5.68495 0.0366549 5.72775 0.0658033 5.76421L1.24543 7.23818C1.23847 7.41256 1.23847 7.58643 1.24543 7.75981L0.0658033 9.23602C0.0365273 9.27242 0.0162162 9.31519 0.00650818 9.36088C-0.00319985 9.40657 -0.00203302 9.45391 0.00991466 9.49907C0.186587 10.1586 0.449944 10.7918 0.793101 11.3821C0.816096 11.4227 0.848305 11.4574 0.887134 11.4833C0.925963 11.5092 0.970327 11.5256 1.01666 11.5312L2.89377 11.7398C3.01151 11.8673 3.13521 11.991 3.26264 12.1087L3.47129 13.9866C3.47689 14.0329 3.4933 14.0772 3.51919 14.1161C3.54507 14.1549 3.57972 14.1871 3.62032 14.2101C4.2112 14.5517 4.84462 14.8138 5.50414 14.9896C5.54925 15.0016 5.59655 15.0029 5.64224 14.9933C5.68793 14.9837 5.73073 14.9636 5.76719 14.9344L7.24116 13.7548C7.41554 13.7613 7.58941 13.7613 7.76279 13.7548L9.23751 14.9344C9.29035 14.9768 9.35606 14.9999 9.4238 15C9.44895 14.9999 9.47399 14.9967 9.49832 14.9903C10.1582 14.8135 10.7916 14.5499 11.3821 14.2064C11.4227 14.1834 11.4574 14.1512 11.4833 14.1123C11.5092 14.0735 11.5256 14.0292 11.5312 13.9828L11.7398 12.1057C11.8673 11.988 11.991 11.8643 12.1087 11.7368L13.9866 11.5282C14.0329 11.5226 14.0772 11.5062 14.1161 11.4803C14.1549 11.4544 14.1871 11.4198 14.2101 11.3792C14.5517 10.7883 14.8138 10.1549 14.9896 9.49534C15.0016 9.45024 15.0029 9.40294 14.9933 9.35725C14.9837 9.31156 14.9636 9.26876 14.9344 9.23229L13.7541 7.7613ZM13.7667 10.9529L11.9284 11.1571C11.855 11.1652 11.7873 11.2003 11.7383 11.2555C11.5872 11.426 11.426 11.5872 11.2555 11.7383C11.2003 11.7873 11.1652 11.855 11.1571 11.9284L10.9529 13.766C10.4892 14.0223 9.99832 14.226 9.48938 14.3733L8.04522 13.2175C7.99227 13.1754 7.92658 13.1525 7.85892 13.1527H7.84104C7.61373 13.1669 7.38576 13.1669 7.15845 13.1527C7.08471 13.1483 7.01194 13.1714 6.95427 13.2175L5.51085 14.3726C5.00169 14.2259 4.51054 14.0226 4.04657 13.7667L3.84239 11.9284C3.83425 11.855 3.7992 11.7873 3.74402 11.7383C3.57352 11.5872 3.41227 11.426 3.26115 11.2555C3.21216 11.2003 3.14445 11.1652 3.07112 11.1571L1.2335 10.9529C0.977185 10.4892 0.77348 9.99832 0.62618 9.48938L1.78196 8.04522C1.82812 7.98754 1.85123 7.91478 1.84679 7.84104C1.83338 7.6137 1.83338 7.38578 1.84679 7.15845C1.85123 7.08471 1.82812 7.01194 1.78196 6.95427L0.626926 5.51085C0.773628 5.00169 0.976836 4.51054 1.23276 4.04657L3.07112 3.84239C3.14445 3.83425 3.21216 3.7992 3.26115 3.74402C3.41227 3.57352 3.57352 3.41227 3.74402 3.26115C3.7992 3.21216 3.83425 3.14445 3.84239 3.07112L4.04657 1.2335C4.51027 0.977185 5.00116 0.77348 5.51011 0.62618L6.95427 1.78196C7.01194 1.82812 7.08471 1.85123 7.15845 1.84679C7.38576 1.83263 7.61373 1.83263 7.84104 1.84679C7.91478 1.85123 7.98754 1.82812 8.04522 1.78196L9.48863 0.626926C9.99779 0.773628 10.4889 0.976836 10.9529 1.23276L11.1571 3.07112C11.1652 3.14445 11.2003 3.21216 11.2555 3.26115C11.426 3.41227 11.5872 3.57352 11.7383 3.74402C11.7873 3.7992 11.855 3.83425 11.9284 3.84239L13.766 4.04657C14.0223 4.51027 14.226 5.00116 14.3733 5.51011L13.2175 6.95427C13.1714 7.01194 13.1483 7.08471 13.1527 7.15845C13.1661 7.38578 13.1661 7.6137 13.1527 7.84104C13.1483 7.91478 13.1714 7.98754 13.2175 8.04522L14.3726 9.48863C14.2259 9.99779 14.0226 10.4889 13.7667 10.9529Z" fill="black"/>
</svg>
